<svg width="117" height="162" viewBox="0 0 117 162" fill="none" xmlns="http://www.w3.org/2000/svg">
<path d="M53.2995 121.797C58.4156 116.239 62.7131 109.995 65.4417 103.545C66.806 100.32 67.761 97.026 68.1021 93.9382C68.4432 90.8504 68.3067 87.8998 67.5564 85.5668C66.806 83.2338 65.6464 81.5183 63.941 80.1459C62.2356 78.7736 60.121 78.0188 57.597 77.8129C55.0731 77.607 52.3445 78.0874 50.2981 79.1167C49.2748 79.597 48.3881 80.2145 47.8423 80.7635C47.2966 81.3124 47.092 81.7928 46.9555 82.0672C36.2459 106.838 21.1022 116.582 14.9629 119.601C26.3547 143 40.0659 161.253 40.0659 161.253C40.0659 161.253 52.2081 150.205 66.806 134.354L53.2995 121.797Z" fill="white"/>
<path d="M68.3066 -0.000488281C36.5868 -0.000488281 6.36775 25.8686 0.774151 57.7762C-1.54515 71.0195 1.59273 86.2528 6.91347 100.868C13.8031 97.0259 38.0876 79.1165 38.0876 17.5658H58.2791C58.2791 35.0635 56.4373 49.6792 53.5041 61.8933C55.2094 61.4129 57.0512 61.1385 58.893 61.0012C61.6216 60.7954 64.4184 61.0012 67.2834 61.6874C70.0802 62.3736 73.0134 63.4715 75.5374 65.1183C80.6535 68.412 84.8828 73.6956 86.9974 79.4596C89.1121 85.2235 89.726 91.1247 89.2485 96.6142C88.7028 102.104 87.4067 107.319 85.4285 112.053C85.2239 112.602 84.951 113.151 84.6781 113.7C99.3443 95.4476 112.646 74.8621 115.648 57.7762C121.241 25.8686 100.026 -0.000488281 68.3066 -0.000488281Z" fill="white"/>
</svg>
