<svg width="38" height="38" viewBox="0 0 38 38" fill="none" xmlns="http://www.w3.org/2000/svg">
<g id="24 hours" clip-path="url(#clip0_530_7318)">
<g id="Group">
<path id="Vector" d="M35.9977 27.291C35.3137 26.8393 34.393 27.0276 33.9411 27.7116C30.9138 32.295 25.8278 35.0312 20.3359 35.0312C11.3464 35.0312 4.30469 27.9895 4.30469 19C4.30469 10.0105 11.3464 2.96875 20.3359 2.96875C23.3062 2.96875 26.1456 3.75139 28.6195 5.21713H27.8422C27.0224 5.21713 26.3578 5.88169 26.3578 6.70151C26.3578 7.52133 27.0224 8.18588 27.8422 8.18588H32.7719C33.1592 8.22537 33.5585 8.11218 33.8745 7.84759C33.8781 7.84462 33.8814 7.84129 33.8849 7.83832C33.9131 7.81427 33.9413 7.7903 33.9681 7.7638C33.9702 7.76172 33.9719 7.75942 33.974 7.75734C34.2465 7.48823 34.4155 7.11476 34.4155 6.70151V1.48438C34.4155 0.664555 33.751 0 32.9312 0C32.1113 0 31.4468 0.664555 31.4468 1.48438V3.51478C28.2316 1.23077 24.3856 0 20.3359 0C9.68176 0 1.33594 8.34582 1.33594 19C1.33594 29.6542 9.68176 38 20.3359 38C26.8279 38 32.8399 34.7655 36.4183 29.3477C36.8701 28.6637 36.6818 27.7429 35.9977 27.291Z" fill="white"/>
<path id="Vector_2" d="M20.3359 8.60938C14.6065 8.60938 9.94531 13.2706 9.94531 19C9.94531 24.7294 14.6065 29.3906 20.3359 29.3906C26.0653 29.3906 30.7266 24.7294 30.7266 19C30.7266 13.2706 26.0653 8.60938 20.3359 8.60938ZM20.3359 26.4219C16.2435 26.4219 12.9141 23.0924 12.9141 19C12.9141 14.9076 16.2435 11.5781 20.3359 11.5781C24.4284 11.5781 27.7578 14.9076 27.7578 19C27.7578 23.0924 24.4284 26.4219 20.3359 26.4219Z" fill="white"/>
<path id="Vector_3" d="M23.3047 17.5156H21.8203V16.0312C21.8203 15.2114 21.1558 14.5469 20.3359 14.5469C19.5161 14.5469 18.8516 15.2114 18.8516 16.0312V19C18.8516 19.8198 19.5161 20.4844 20.3359 20.4844H23.3047C24.1245 20.4844 24.7891 19.8198 24.7891 19C24.7891 18.1802 24.1245 17.5156 23.3047 17.5156Z" fill="white"/>
</g>
</g>
<defs>
<clipPath id="clip0_530_7318">
<rect width="38" height="38" fill="white"/>
</clipPath>
</defs>
</svg>
