<svg width="32" height="32" viewBox="0 0 32 32" fill="none" xmlns="http://www.w3.org/2000/svg">
<g id="Up straight arrow pointing a dot" clip-path="url(#clip0_563_170)">
<g id="Group">
<path id="Vector" d="M27.5995 16C27.5995 17.2151 28.5846 18.2002 29.7997 18.2002C31.0149 18.2002 32 17.2151 32 16C32 14.7848 31.0149 13.7997 29.7997 13.7997C28.5846 13.7997 27.5995 14.7848 27.5995 16Z" fill="black"/>
<path id="Vector_2" d="M18.8273 10.2012C18.4705 10.5538 18.2918 11.0183 18.2918 11.4832C18.2918 11.9407 18.465 12.3985 18.812 12.7497L20.243 14.1979L1.8014 14.1979C0.806145 14.1979 -0.000665897 15.0047 -0.000665941 16C-0.000665984 16.9952 0.806144 17.802 1.8014 17.802L20.2845 17.802L18.8343 19.235C18.1263 19.9346 18.1194 21.0755 18.819 21.7834C19.5185 22.4914 20.6595 22.4982 21.3674 21.7987L25.8805 17.3394C26.2205 17.0035 26.4131 16.5464 26.416 16.0685C26.416 16.0649 26.416 16.0612 26.416 16.0576C26.416 15.5835 26.2292 15.1284 25.8958 14.791L21.3758 10.2165C20.6762 9.50856 19.5353 9.50169 18.8273 10.2012Z" fill="black"/>
</g>
</g>
<defs>
<clipPath id="clip0_563_170">
<rect width="32" height="32" fill="white" transform="translate(32) rotate(90)"/>
</clipPath>
</defs>
</svg>
