<svg width="38" height="38" viewBox="0 0 38 38" fill="none" xmlns="http://www.w3.org/2000/svg">
<g id="Shield" clip-path="url(#clip0_530_7137)">
<g id="Group">
<path id="Vector" d="M35.3013 7.23247L33.4324 6.76526C30.8342 6.1157 29.0195 3.79154 29.0195 1.11328C29.0195 0.498453 28.5211 0 27.9062 0H10.0938C9.47892 0 8.98047 0.498453 8.98047 1.11328C8.98047 3.79154 7.16582 6.1157 4.56757 6.76526L2.69874 7.23247C2.20318 7.35634 1.85547 7.80165 1.85547 8.3125V14.5467C1.85547 25.1461 8.6021 34.5477 18.6435 37.9414C18.7592 37.9804 18.8795 38 19 38C19.1205 38 19.2408 37.9805 19.3565 37.9414C29.3979 34.5477 36.1445 25.1462 36.1445 14.5467V8.3125C36.1445 7.80165 35.7968 7.35634 35.3013 7.23247ZM33.918 14.5467C33.918 24.0645 27.9389 32.5207 19 35.7083C10.0611 32.5207 4.08203 24.0645 4.08203 14.5467V9.18168L5.10759 8.92532C8.33321 8.11894 10.6851 5.44498 11.1306 2.22656H26.8694C27.3148 5.44498 29.6667 8.11894 32.8924 8.92532L33.918 9.18168V14.5467Z" fill="white"/>
<path id="Vector_2" d="M19 7.19922C13.1478 7.19922 8.38672 11.9603 8.38672 17.8125C8.38672 23.6647 13.1478 28.4258 19 28.4258C24.8522 28.4258 29.6133 23.6647 29.6133 17.8125C29.6133 11.9603 24.8522 7.19922 19 7.19922ZM19 26.1992C14.3755 26.1992 10.6133 22.437 10.6133 17.8125C10.6133 13.188 14.3755 9.42578 19 9.42578C23.6245 9.42578 27.3867 13.188 27.3867 17.8125C27.3867 22.437 23.6245 26.1992 19 26.1992Z" fill="white"/>
<path id="Vector_3" d="M20.2338 16.7141C19.5243 16.4639 18.7428 16.1626 18.3227 15.8331C18.2952 15.8116 18.2433 15.6824 18.2796 15.4902C18.2967 15.3982 18.3769 15.0902 18.673 15.0011C18.9929 14.9048 19.4035 15.0673 19.7506 15.2665C20.1932 15.5206 20.7535 15.4302 21.0994 15.0548C21.5895 14.5227 21.4409 13.6701 20.7993 13.3359C20.5858 13.2247 20.3542 13.1199 20.1119 13.0306C20.0949 12.4306 19.6044 11.9492 19.0003 11.9492C18.4356 11.9492 17.9704 12.37 17.8979 12.9148C16.9694 13.2477 16.283 14.0636 16.0917 15.0775C15.9054 16.0639 16.2342 17.025 16.9481 17.5854C17.6198 18.1123 18.5676 18.4871 19.4924 18.8137C20.0438 19.0089 20.1002 19.4045 20.0497 19.7021C19.9941 20.0331 19.7091 20.5957 18.9929 20.6002C18.2507 20.6046 18.0748 20.5779 17.5322 20.2224C17.0179 19.8862 16.3277 20.0302 15.9915 20.5445C15.6545 21.0596 15.7992 21.7491 16.3136 22.086C16.9125 22.4779 17.3852 22.6696 17.9053 22.7581C17.9978 23.2795 18.4523 23.6758 19.0003 23.6758C19.5922 23.6758 20.0749 23.2135 20.1102 22.6304C21.207 22.2353 22.0433 21.277 22.2459 20.071C22.4967 18.5777 21.6885 17.2284 20.2338 16.7141Z" fill="white"/>
</g>
</g>
<defs>
<clipPath id="clip0_530_7137">
<rect width="38" height="38" fill="white"/>
</clipPath>
</defs>
</svg>
