<svg width="20" height="20" viewBox="0 0 20 20" fill="none" xmlns="http://www.w3.org/2000/svg">
<g id="ant-design:star-filled">
<path id="Vector" d="M17.7369 6.89649L12.7779 6.17579L10.5611 1.68165C10.5006 1.5586 10.4009 1.45899 10.2779 1.39844C9.96931 1.2461 9.59431 1.37305 9.44001 1.68165L7.22321 6.17579L2.26423 6.89649C2.12751 6.91602 2.00251 6.98048 1.90681 7.07813C1.79111 7.19705 1.72735 7.35704 1.72955 7.52294C1.73174 7.68884 1.79972 7.84709 1.91852 7.9629L5.50641 11.4609L4.65876 16.4004C4.63888 16.5153 4.6516 16.6335 4.69546 16.7415C4.73933 16.8496 4.81259 16.9432 4.90694 17.0117C5.00129 17.0802 5.11295 17.1209 5.22927 17.1292C5.34558 17.1375 5.46189 17.113 5.56501 17.0586L10.0006 14.7266L14.4361 17.0586C14.5572 17.1231 14.6978 17.1445 14.8326 17.1211C15.1724 17.0625 15.4009 16.7402 15.3424 16.4004L14.4947 11.4609L18.0826 7.9629C18.1802 7.8672 18.2447 7.7422 18.2642 7.60548C18.317 7.26368 18.0787 6.94727 17.7369 6.89649Z" fill="#4C8BF5"/>
</g>
</svg>
