<svg width="38" height="38" viewBox="0 0 38 38" fill="none" xmlns="http://www.w3.org/2000/svg">
<g id="Warehouse" clip-path="url(#clip0_530_7085)">
<g id="Group">
<g id="Group_2">
<path id="Vector" d="M37.4434 33.5876H34.9259V13.4687C36.7769 12.2401 38 10.1373 38 7.754C38 3.97448 34.9251 0.899597 31.1456 0.899597C27.7783 0.899597 24.9704 3.34035 24.3979 6.54557L19.2724 3.66996C19.1032 3.57511 18.8968 3.57511 18.7277 3.66996L3.3584 12.292C3.1828 12.3904 3.07407 12.5761 3.07407 12.7774V17.7011C3.07407 18.0085 3.32329 18.2577 3.63071 18.2577C3.93812 18.2577 4.18735 18.0085 4.18735 17.7011V13.1034L19 4.79371L24.2914 7.76238C24.296 11.538 27.3689 14.6083 31.1456 14.6083C32.0911 14.6083 32.9924 14.4159 33.8126 14.0682V33.5875H30.0527V26.2525C30.0527 25.9451 29.8035 25.6959 29.496 25.6959C29.1885 25.6959 28.9394 25.9451 28.9394 26.2525V33.5875H27.054V31.7453C27.054 31.4379 26.8048 31.1886 26.4974 31.1886H25.2526L25.47 30.8407C25.5828 30.6602 25.5828 30.4312 25.47 30.2507L25.1607 29.7558C25.0652 29.603 24.9521 29.4659 24.8252 29.3462C24.9522 29.2264 25.0652 29.0892 25.1607 28.9364L25.47 28.4416C25.5828 28.2611 25.5828 28.032 25.47 27.8515L25.1607 27.3567C25.0652 27.2039 24.9521 27.0668 24.8252 26.947C24.9522 26.8272 25.0652 26.6901 25.1607 26.5373L25.47 26.0425C25.5828 25.862 25.5828 25.6329 25.47 25.4524L25.1607 24.9576C24.7825 24.3525 24.1307 23.9912 23.4171 23.9912H14.5829C13.8693 23.9912 13.2175 24.3525 12.8394 24.9576L12.5301 25.4524C12.4173 25.6329 12.4173 25.862 12.5301 26.0425L12.8394 26.5373C12.9349 26.6901 13.048 26.8272 13.1749 26.947C13.0479 27.0668 12.9348 27.204 12.8394 27.3568L12.5301 27.8516C12.4173 28.0321 12.4173 28.2612 12.5301 28.4417L12.8394 28.9365C12.9349 29.0893 13.048 29.2264 13.1749 29.3462C13.0479 29.466 12.9348 29.6032 12.8394 29.756L12.5301 30.2508C12.4173 30.4313 12.4173 30.6604 12.5301 30.8409L12.7476 31.1888H11.5027C11.1953 31.1888 10.9461 31.438 10.9461 31.7454V33.5877H9.06063V18.2073H28.9394V23.655C28.9394 23.9624 29.1885 24.2116 29.496 24.2116C29.8035 24.2116 30.0527 23.9624 30.0527 23.655V17.6507C30.0527 17.3433 29.8035 17.0941 29.496 17.0941H8.50398C8.19657 17.0941 7.94734 17.3433 7.94734 17.6507V33.5877H4.18742V20.2988C4.18742 19.9914 3.9382 19.7422 3.63078 19.7422C3.32337 19.7422 3.07414 19.9914 3.07414 20.2988V33.5877H0.556641C0.249227 33.5877 0 33.8369 0 34.1443V36.5438C0 36.8512 0.249227 37.1005 0.556641 37.1005H31.3574C31.6649 37.1005 31.9141 36.8512 31.9141 36.5438C31.9141 36.2364 31.6649 35.9872 31.3574 35.9872H1.11328V34.701H36.8867V35.9872H33.9551C33.6476 35.9872 33.3984 36.2364 33.3984 36.5438C33.3984 36.8512 33.6476 37.1005 33.9551 37.1005H37.4434C37.7508 37.1005 38 36.8512 38 36.5438V34.1443C38 33.8368 37.7508 33.5876 37.4434 33.5876ZM25.4046 7.754C25.4046 4.58834 27.9799 2.01288 31.1457 2.01288C34.3114 2.01288 36.8867 4.58834 36.8867 7.754C36.8867 10.9196 34.3113 13.4951 31.1456 13.4951C27.9799 13.4951 25.4046 10.9196 25.4046 7.754ZM13.7835 25.9472L13.6586 25.7474L13.7835 25.5476C13.9569 25.2701 14.2558 25.1045 14.5829 25.1045H23.417C23.7442 25.1045 24.0431 25.2701 24.2165 25.5476L24.3414 25.7474L24.2165 25.9472C24.043 26.2247 23.7442 26.3904 23.417 26.3904H14.5829C14.2558 26.3904 13.9569 26.2247 13.7835 25.9472ZM13.7835 28.3464L13.6586 28.1466L13.7835 27.9468C13.9569 27.6693 14.2558 27.5037 14.5829 27.5037H23.417C23.7442 27.5037 24.0431 27.6693 24.2165 27.9468L24.3414 28.1466L24.2165 28.3464C24.043 28.6239 23.7442 28.7896 23.417 28.7896H14.5829C14.2558 28.7895 13.9569 28.6239 13.7835 28.3464ZM13.7835 30.7456L13.6586 30.5458L13.7835 30.346C13.9569 30.0685 14.2558 29.9028 14.5829 29.9028H23.417C23.7442 29.9028 24.0431 30.0685 24.2165 30.346L24.3414 30.5458L24.2165 30.7456C24.043 31.0231 23.7442 31.1887 23.417 31.1887H14.5829C14.2558 31.1887 13.9569 31.0231 13.7835 30.7456ZM12.0594 32.302H25.9407V33.5876H12.0594V32.302Z" fill="white"/>
<path id="Vector_2" d="M15.958 13.1521V11.6526C15.958 11.3452 15.7088 11.0959 15.4014 11.0959C15.094 11.0959 14.8447 11.3452 14.8447 11.6526V13.1521C14.8447 13.4595 15.094 13.7087 15.4014 13.7087C15.7088 13.7087 15.958 13.4595 15.958 13.1521Z" fill="white"/>
<path id="Vector_3" d="M18.3564 13.1521V11.6526C18.3564 11.3452 18.1072 11.0959 17.7998 11.0959C17.4924 11.0959 17.2432 11.3452 17.2432 11.6526V13.1521C17.2432 13.4595 17.4924 13.7087 17.7998 13.7087C18.1072 13.7087 18.3564 13.4595 18.3564 13.1521Z" fill="white"/>
<path id="Vector_4" d="M20.7568 13.1521V11.6526C20.7568 11.3452 20.5077 11.0959 20.2002 11.0959C19.8927 11.0959 19.6436 11.3452 19.6436 11.6526V13.1521C19.6436 13.4595 19.8927 13.7087 20.2002 13.7087C20.5077 13.7087 20.7568 13.4595 20.7568 13.1521Z" fill="white"/>
<path id="Vector_5" d="M23.1553 13.1521V11.6526C23.1553 11.3452 22.9061 11.0959 22.5986 11.0959C22.2911 11.0959 22.042 11.3452 22.042 11.6526V13.1521C22.042 13.4595 22.2911 13.7087 22.5986 13.7087C22.9061 13.7087 23.1553 13.4595 23.1553 13.1521Z" fill="white"/>
<path id="Vector_6" d="M34.3584 4.54152C32.9756 3.15883 30.4097 3.47478 28.6382 5.24623C26.8669 7.01754 26.5508 9.58358 27.9336 10.9663C28.5137 11.5466 29.3021 11.8276 30.1529 11.8276C31.3296 11.8276 32.6256 11.2896 33.6536 10.2616C34.4912 9.42401 35.0351 8.38442 35.1852 7.3343C35.3436 6.22503 35.05 5.23317 34.3584 4.54152ZM34.083 7.17696C33.9669 7.99025 33.5348 8.80613 32.8664 9.47447H32.8664C31.529 10.8117 29.6693 11.1278 28.7207 10.1792C27.7721 9.23044 28.0882 7.37074 29.4254 6.03347C30.2416 5.21729 31.2524 4.78147 32.132 4.78147C32.6934 4.78147 33.2015 4.95915 33.5712 5.32876C34.009 5.76658 34.1907 6.42297 34.083 7.17696Z" fill="white"/>
<path id="Vector_7" d="M31.6941 6.20588C31.4091 6.49073 31.3455 6.75072 31.3033 6.92276C31.2764 7.03268 31.2715 7.0525 31.2067 7.11729C31.142 7.18201 31.1221 7.18683 31.0125 7.2137C30.8405 7.25578 30.5805 7.31939 30.2956 7.60424C30.0108 7.88909 29.9472 8.149 29.905 8.32104C29.8782 8.43089 29.8733 8.4507 29.8085 8.51542C29.5912 8.73281 29.5912 9.08527 29.8085 9.30259C29.9173 9.41124 30.0598 9.46565 30.2022 9.46565C30.3446 9.46565 30.4871 9.41132 30.5959 9.30259C30.8807 9.01773 30.9443 8.75782 30.9865 8.58578C31.0133 8.47594 31.0182 8.45612 31.0829 8.39148C31.1476 8.32676 31.1674 8.32193 31.2771 8.29507C31.4491 8.25298 31.7091 8.18938 31.9938 7.9046C32.2788 7.61975 32.3425 7.35976 32.3846 7.18772C32.4115 7.07781 32.4164 7.05799 32.4812 6.9932C32.6987 6.77581 32.6987 6.42334 32.4813 6.20596C32.2639 5.98857 31.9115 5.98857 31.6941 6.20588Z" fill="white"/>
</g>
</g>
</g>
<defs>
<clipPath id="clip0_530_7085">
<rect width="38" height="38" fill="white"/>
</clipPath>
</defs>
</svg>
